<svg class="absolute inset-0 h-full w-auto" viewBox="0 0 200 200" xmlns="http://www.w3.org/2000/svg">
    <path fill="#38bdf8" d="M36.2,-59.1C45,-57.6,49,-44.1,50.5,-32.2C52,-20.4,51.2,-10.2,48.3,-1.7C45.4,6.8,40.4,13.7,35.6,19.9C30.8,26.1,26.2,31.7,20.3,41C14.3,50.3,7.2,63.2,-3.5,69.2C-14.1,75.2,-28.2,74.2,-38.9,67.7C-49.6,61.2,-56.9,49.1,-58.4,36.9C-59.9,24.7,-55.6,12.4,-58.9,-1.9C-62.3,-16.3,-73.4,-32.5,-72.6,-46C-71.9,-59.6,-59.4,-70.3,-45.3,-68.8C-31.2,-67.3,-15.6,-53.4,-1,-51.8C13.7,-50.1,27.4,-60.6,36.2,-59.1Z" transform="translate(100 100) scale(1.3)" />
</svg>